<svg width="850" height="300" viewBox="0 0 850 300" fill="none" xmlns="http://www.w3.org/2000/svg">
<path d="M850 0H0V300H850V0Z" fill="white"/>
<path d="M294 60H139C136.791 60 135 61.7909 135 64V80C135 82.2091 136.791 84 139 84H294C296.209 84 298 82.2091 298 80V64C298 61.7909 296.209 60 294 60Z" fill="#2CA01C"/>
<path d="M159.359 68.584C158.687 67.696 157.379 67.288 156.275 67.288C153.659 67.288 151.667 69.004 151.667 71.728C151.667 74.38 153.551 76.216 156.203 76.216C157.643 76.216 158.747 75.664 159.491 74.728L158.279 73.876C157.847 74.464 157.127 74.86 156.215 74.86C154.463 74.86 153.335 73.576 153.335 71.728C153.335 69.976 154.523 68.62 156.275 68.62C156.959 68.62 157.763 68.884 158.207 69.496L159.359 68.584ZM159.882 73.096C159.882 74.908 161.274 76.168 163.014 76.168C164.754 76.168 166.146 74.908 166.146 73.096C166.146 71.284 164.754 70.072 163.014 70.072C161.274 70.072 159.882 71.284 159.882 73.096ZM161.346 73.096C161.346 72.196 161.874 71.248 163.014 71.248C164.154 71.248 164.682 72.196 164.682 73.096C164.682 73.996 164.154 74.968 163.014 74.968C161.874 74.968 161.346 73.996 161.346 73.096ZM167.542 76H168.982V72.832C168.982 72.064 169.414 71.272 170.326 71.272C171.25 71.272 171.406 72.124 171.406 72.808V76H172.846V72.4C172.846 71.224 172.222 70.072 170.722 70.072C169.87 70.072 169.186 70.588 168.934 71.164H168.91V70.24H167.542V76ZM174.526 76H175.966V72.832C175.966 72.064 176.398 71.272 177.31 71.272C178.234 71.272 178.39 72.124 178.39 72.808V76H179.83V72.4C179.83 71.224 179.206 70.072 177.706 70.072C176.854 70.072 176.17 70.588 175.918 71.164H175.894V70.24H174.526V76ZM182.614 72.544C182.674 71.74 183.358 71.152 184.21 71.152C185.146 71.152 185.566 71.8 185.566 72.544H182.614ZM187.006 73.192C187.006 71.116 185.83 70.072 184.222 70.072C182.482 70.072 181.174 71.296 181.174 73.156C181.174 75.028 182.494 76.168 184.27 76.168C185.362 76.168 186.178 75.784 186.742 75.016L185.782 74.248C185.458 74.704 184.978 74.992 184.258 74.992C183.418 74.992 182.674 74.392 182.614 73.576H186.994C187.006 73.444 187.006 73.324 187.006 73.192ZM193.321 70.972C192.865 70.408 191.989 70.072 191.149 70.072C189.457 70.072 188.065 71.248 188.065 73.12C188.065 75.04 189.481 76.168 191.185 76.168C192.037 76.168 192.829 75.88 193.309 75.364L192.409 74.452C192.133 74.788 191.641 74.968 191.197 74.968C190.105 74.968 189.565 74.02 189.565 73.12C189.565 72.22 190.093 71.272 191.149 71.272C191.617 71.272 192.109 71.512 192.337 71.836L193.321 70.972ZM194.44 71.392V74.08C194.44 75.184 194.788 76.12 196.312 76.12C196.636 76.12 197.02 76.06 197.272 75.964L197.224 74.836C197.056 74.92 196.804 74.956 196.612 74.956C195.976 74.956 195.856 74.584 195.856 74.068V71.392H197.296V70.24H195.856V68.572H194.44V70.24H193.432V71.392H194.44ZM201.519 71.392V74.08C201.519 75.184 201.867 76.12 203.391 76.12C203.715 76.12 204.099 76.06 204.351 75.964L204.303 74.836C204.135 74.92 203.883 74.956 203.691 74.956C203.055 74.956 202.935 74.584 202.935 74.068V71.392H204.375V70.24H202.935V68.572H201.519V70.24H200.511V71.392H201.519ZM205.081 73.096C205.081 74.908 206.473 76.168 208.213 76.168C209.953 76.168 211.345 74.908 211.345 73.096C211.345 71.284 209.953 70.072 208.213 70.072C206.473 70.072 205.081 71.284 205.081 73.096ZM206.545 73.096C206.545 72.196 207.073 71.248 208.213 71.248C209.353 71.248 209.881 72.196 209.881 73.096C209.881 73.996 209.353 74.968 208.213 74.968C207.073 74.968 206.545 73.996 206.545 73.096ZM224.969 74.776H222.869V74.752C223.625 74.212 224.381 73.168 224.381 71.644C224.381 69.064 222.473 67.288 219.869 67.288C217.265 67.288 215.321 69.064 215.321 71.644C215.321 74.404 217.133 76 219.845 76H224.969V74.776ZM219.869 68.644C221.585 68.644 222.737 69.916 222.737 71.644C222.737 73.456 221.525 74.68 219.845 74.68C218.141 74.68 216.977 73.456 216.977 71.644C216.977 69.916 218.225 68.644 219.869 68.644ZM231.216 70.24H229.776V73.408C229.776 74.176 229.344 74.968 228.432 74.968C227.508 74.968 227.352 74.116 227.352 73.432V70.24H225.912V73.84C225.912 75.016 226.536 76.168 228.036 76.168C228.888 76.168 229.572 75.652 229.824 75.076H229.848V76H231.216V70.24ZM232.968 76H234.408V70.24H232.968V76ZM232.764 68.284C232.764 68.74 233.148 69.148 233.676 69.148C234.204 69.148 234.612 68.776 234.612 68.284C234.612 67.792 234.204 67.42 233.676 67.42C233.148 67.42 232.764 67.828 232.764 68.284ZM241.075 70.972C240.619 70.408 239.743 70.072 238.903 70.072C237.211 70.072 235.819 71.248 235.819 73.12C235.819 75.04 237.235 76.168 238.939 76.168C239.791 76.168 240.583 75.88 241.063 75.364L240.163 74.452C239.887 74.788 239.395 74.968 238.951 74.968C237.859 74.968 237.319 74.02 237.319 73.12C237.319 72.22 237.847 71.272 238.903 71.272C239.371 71.272 239.863 71.512 240.091 71.836L241.075 70.972ZM242.038 76H243.478V73.048H243.514L245.794 76H247.702L245.05 72.844L247.546 70.24H245.698L243.514 72.664H243.478V66.928H242.038V76ZM248.602 76H251.662C253.27 76 254.878 75.376 254.878 73.528C254.878 72.388 254.11 71.668 253.042 71.524V71.5C253.918 71.236 254.518 70.6 254.518 69.64C254.518 68.092 253.198 67.504 251.914 67.504H248.602V76ZM250.114 68.752H251.326C252.466 68.752 253.006 69.052 253.006 69.808C253.006 70.54 252.466 70.96 251.458 70.96H250.114V68.752ZM250.114 72.256H251.53C252.754 72.256 253.366 72.568 253.366 73.456C253.366 74.572 252.25 74.728 251.47 74.728H250.114V72.256ZM255.964 73.096C255.964 74.908 257.356 76.168 259.096 76.168C260.836 76.168 262.228 74.908 262.228 73.096C262.228 71.284 260.836 70.072 259.096 70.072C257.356 70.072 255.964 71.284 255.964 73.096ZM257.428 73.096C257.428 72.196 257.956 71.248 259.096 71.248C260.236 71.248 260.764 72.196 260.764 73.096C260.764 73.996 260.236 74.968 259.096 74.968C257.956 74.968 257.428 73.996 257.428 73.096ZM263.288 73.096C263.288 74.908 264.68 76.168 266.42 76.168C268.16 76.168 269.552 74.908 269.552 73.096C269.552 71.284 268.16 70.072 266.42 70.072C264.68 70.072 263.288 71.284 263.288 73.096ZM264.752 73.096C264.752 72.196 265.28 71.248 266.42 71.248C267.56 71.248 268.088 72.196 268.088 73.096C268.088 73.996 267.56 74.968 266.42 74.968C265.28 74.968 264.752 73.996 264.752 73.096ZM270.972 76H272.412V73.048H272.448L274.728 76H276.636L273.984 72.844L276.48 70.24H274.632L272.448 72.664H272.412V66.928H270.972V76ZM281.485 70.948C281.017 70.36 280.153 70.072 279.325 70.072C278.185 70.072 277.033 70.624 277.033 71.908C277.033 72.988 277.885 73.336 278.737 73.54C279.613 73.744 280.057 73.888 280.057 74.368C280.057 74.884 279.553 75.052 279.133 75.052C278.509 75.052 277.969 74.74 277.657 74.332L276.709 75.22C277.261 75.832 278.185 76.168 279.073 76.168C280.333 76.168 281.473 75.652 281.473 74.248C281.473 73.12 280.465 72.736 279.613 72.532C278.809 72.34 278.365 72.22 278.365 71.776C278.365 71.32 278.833 71.152 279.289 71.152C279.817 71.152 280.297 71.44 280.549 71.776L281.485 70.948Z" fill="white"/>
<path d="M405 202H139C136.791 202 135 203.791 135 206V246C135 248.209 136.791 250 139 250H405C407.209 250 409 248.209 409 246V206C409 203.791 407.209 202 405 202Z" fill="#2CA01C"/>
<path d="M176.764 220.64C175.644 219.16 173.464 218.48 171.624 218.48C167.264 218.48 163.944 221.34 163.944 225.88C163.944 230.3 167.084 233.36 171.504 233.36C173.904 233.36 175.744 232.44 176.984 230.88L174.964 229.46C174.244 230.44 173.044 231.1 171.524 231.1C168.604 231.1 166.724 228.96 166.724 225.88C166.724 222.96 168.704 220.7 171.624 220.7C172.764 220.7 174.104 221.14 174.844 222.16L176.764 220.64ZM177.636 228.16C177.636 231.18 179.956 233.28 182.856 233.28C185.756 233.28 188.076 231.18 188.076 228.16C188.076 225.14 185.756 223.12 182.856 223.12C179.956 223.12 177.636 225.14 177.636 228.16ZM180.076 228.16C180.076 226.66 180.956 225.08 182.856 225.08C184.756 225.08 185.636 226.66 185.636 228.16C185.636 229.66 184.756 231.28 182.856 231.28C180.956 231.28 180.076 229.66 180.076 228.16ZM190.403 233H192.803V227.72C192.803 226.44 193.523 225.12 195.043 225.12C196.583 225.12 196.843 226.54 196.843 227.68V233H199.243V227C199.243 225.04 198.203 223.12 195.703 223.12C194.283 223.12 193.143 223.98 192.723 224.94H192.683V223.4H190.403V233ZM202.044 233H204.444V227.72C204.444 226.44 205.164 225.12 206.684 225.12C208.224 225.12 208.484 226.54 208.484 227.68V233H210.884V227C210.884 225.04 209.844 223.12 207.344 223.12C205.924 223.12 204.784 223.98 204.364 224.94H204.324V223.4H202.044V233ZM215.524 227.24C215.624 225.9 216.764 224.92 218.184 224.92C219.744 224.92 220.444 226 220.444 227.24H215.524ZM222.844 228.32C222.844 224.86 220.884 223.12 218.204 223.12C215.304 223.12 213.124 225.16 213.124 228.26C213.124 231.38 215.324 233.28 218.284 233.28C220.104 233.28 221.464 232.64 222.404 231.36L220.804 230.08C220.264 230.84 219.464 231.32 218.264 231.32C216.864 231.32 215.624 230.32 215.524 228.96H222.824C222.844 228.74 222.844 228.54 222.844 228.32ZM233.369 224.62C232.609 223.68 231.149 223.12 229.749 223.12C226.929 223.12 224.609 225.08 224.609 228.2C224.609 231.4 226.969 233.28 229.809 233.28C231.229 233.28 232.549 232.8 233.349 231.94L231.849 230.42C231.389 230.98 230.569 231.28 229.829 231.28C228.009 231.28 227.109 229.7 227.109 228.2C227.109 226.7 227.989 225.12 229.749 225.12C230.529 225.12 231.349 225.52 231.729 226.06L233.369 224.62ZM235.234 225.32V229.8C235.234 231.64 235.814 233.2 238.354 233.2C238.894 233.2 239.534 233.1 239.954 232.94L239.874 231.06C239.594 231.2 239.174 231.26 238.854 231.26C237.794 231.26 237.594 230.64 237.594 229.78V225.32H239.994V223.4H237.594V220.62H235.234V223.4H233.554V225.32H235.234ZM247.031 225.32V229.8C247.031 231.64 247.611 233.2 250.151 233.2C250.691 233.2 251.331 233.1 251.751 232.94L251.671 231.06C251.391 231.2 250.971 231.26 250.651 231.26C249.591 231.26 249.391 230.64 249.391 229.78V225.32H251.791V223.4H249.391V220.62H247.031V223.4H245.351V225.32H247.031ZM252.968 228.16C252.968 231.18 255.288 233.28 258.188 233.28C261.088 233.28 263.408 231.18 263.408 228.16C263.408 225.14 261.088 223.12 258.188 223.12C255.288 223.12 252.968 225.14 252.968 228.16ZM255.408 228.16C255.408 226.66 256.288 225.08 258.188 225.08C260.088 225.08 260.968 226.66 260.968 228.16C260.968 229.66 260.088 231.28 258.188 231.28C256.288 231.28 255.408 229.66 255.408 228.16ZM286.115 230.96H282.615V230.92C283.875 230.02 285.135 228.28 285.135 225.74C285.135 221.44 281.955 218.48 277.615 218.48C273.275 218.48 270.035 221.44 270.035 225.74C270.035 230.34 273.055 233 277.575 233H286.115V230.96ZM277.615 220.74C280.475 220.74 282.395 222.86 282.395 225.74C282.395 228.76 280.375 230.8 277.575 230.8C274.735 230.8 272.795 228.76 272.795 225.74C272.795 222.86 274.875 220.74 277.615 220.74ZM296.526 223.4H294.126V228.68C294.126 229.96 293.406 231.28 291.886 231.28C290.346 231.28 290.086 229.86 290.086 228.72V223.4H287.686V229.4C287.686 231.36 288.726 233.28 291.226 233.28C292.646 233.28 293.786 232.42 294.206 231.46H294.246V233H296.526V223.4ZM299.447 233H301.847V223.4H299.447V233ZM299.107 220.14C299.107 220.9 299.747 221.58 300.627 221.58C301.507 221.58 302.187 220.96 302.187 220.14C302.187 219.32 301.507 218.7 300.627 218.7C299.747 218.7 299.107 219.38 299.107 220.14ZM312.958 224.62C312.198 223.68 310.738 223.12 309.338 223.12C306.518 223.12 304.198 225.08 304.198 228.2C304.198 231.4 306.558 233.28 309.398 233.28C310.818 233.28 312.138 232.8 312.938 231.94L311.438 230.42C310.978 230.98 310.158 231.28 309.418 231.28C307.598 231.28 306.698 229.7 306.698 228.2C306.698 226.7 307.578 225.12 309.338 225.12C310.118 225.12 310.938 225.52 311.318 226.06L312.958 224.62ZM314.564 233H316.964V228.08H317.024L320.824 233H324.004L319.584 227.74L323.744 223.4H320.664L317.024 227.44H316.964V217.88H314.564V233ZM325.503 233H330.603C333.283 233 335.963 231.96 335.963 228.88C335.963 226.98 334.683 225.78 332.903 225.54V225.5C334.363 225.06 335.363 224 335.363 222.4C335.363 219.82 333.163 218.84 331.023 218.84H325.503V233ZM328.023 220.92H330.043C331.943 220.92 332.843 221.42 332.843 222.68C332.843 223.9 331.943 224.6 330.263 224.6H328.023V220.92ZM328.023 226.76H330.383C332.423 226.76 333.443 227.28 333.443 228.76C333.443 230.62 331.583 230.88 330.283 230.88H328.023V226.76ZM337.773 228.16C337.773 231.18 340.093 233.28 342.993 233.28C345.893 233.28 348.213 231.18 348.213 228.16C348.213 225.14 345.893 223.12 342.993 223.12C340.093 223.12 337.773 225.14 337.773 228.16ZM340.213 228.16C340.213 226.66 341.093 225.08 342.993 225.08C344.893 225.08 345.773 226.66 345.773 228.16C345.773 229.66 344.893 231.28 342.993 231.28C341.093 231.28 340.213 229.66 340.213 228.16ZM349.98 228.16C349.98 231.18 352.3 233.28 355.2 233.28C358.1 233.28 360.42 231.18 360.42 228.16C360.42 225.14 358.1 223.12 355.2 223.12C352.3 223.12 349.98 225.14 349.98 228.16ZM352.42 228.16C352.42 226.66 353.3 225.08 355.2 225.08C357.1 225.08 357.98 226.66 357.98 228.16C357.98 229.66 357.1 231.28 355.2 231.28C353.3 231.28 352.42 229.66 352.42 228.16ZM362.787 233H365.187V228.08H365.247L369.047 233H372.227L367.807 227.74L371.967 223.4H368.887L365.247 227.44H365.187V217.88H362.787V233ZM380.309 224.58C379.529 223.6 378.089 223.12 376.709 223.12C374.809 223.12 372.889 224.04 372.889 226.18C372.889 227.98 374.309 228.56 375.729 228.9C377.189 229.24 377.929 229.48 377.929 230.28C377.929 231.14 377.089 231.42 376.389 231.42C375.349 231.42 374.449 230.9 373.929 230.22L372.349 231.7C373.269 232.72 374.809 233.28 376.289 233.28C378.389 233.28 380.289 232.42 380.289 230.08C380.289 228.2 378.609 227.56 377.189 227.22C375.849 226.9 375.109 226.7 375.109 225.96C375.109 225.2 375.889 224.92 376.649 224.92C377.529 224.92 378.329 225.4 378.749 225.96L380.309 224.58Z" fill="white"/>
<path d="M354 125H139C136.791 125 135 126.791 135 129V157C135 159.209 136.791 161 139 161H354C356.209 161 358 159.209 358 157V129C358 126.791 356.209 125 354 125Z" fill="#2CA01C"/>
<path d="M170.312 139.112C169.416 137.928 167.672 137.384 166.2 137.384C162.712 137.384 160.056 139.672 160.056 143.304C160.056 146.84 162.568 149.288 166.104 149.288C168.024 149.288 169.496 148.552 170.488 147.304L168.872 146.168C168.296 146.952 167.336 147.48 166.12 147.48C163.784 147.48 162.28 145.768 162.28 143.304C162.28 140.968 163.864 139.16 166.2 139.16C167.112 139.16 168.184 139.512 168.776 140.328L170.312 139.112ZM171.009 145.128C171.009 147.544 172.865 149.224 175.185 149.224C177.505 149.224 179.361 147.544 179.361 145.128C179.361 142.712 177.505 141.096 175.185 141.096C172.865 141.096 171.009 142.712 171.009 145.128ZM172.961 145.128C172.961 143.928 173.665 142.664 175.185 142.664C176.705 142.664 177.409 143.928 177.409 145.128C177.409 146.328 176.705 147.624 175.185 147.624C173.665 147.624 172.961 146.328 172.961 145.128ZM181.222 149H183.142V144.776C183.142 143.752 183.718 142.696 184.934 142.696C186.166 142.696 186.374 143.832 186.374 144.744V149H188.294V144.2C188.294 142.632 187.462 141.096 185.462 141.096C184.326 141.096 183.414 141.784 183.078 142.552H183.046V141.32H181.222V149ZM190.535 149H192.455V144.776C192.455 143.752 193.031 142.696 194.247 142.696C195.479 142.696 195.687 143.832 195.687 144.744V149H197.607V144.2C197.607 142.632 196.775 141.096 194.775 141.096C193.639 141.096 192.727 141.784 192.391 142.552H192.359V141.32H190.535V149ZM201.319 144.392C201.399 143.32 202.311 142.536 203.447 142.536C204.695 142.536 205.255 143.4 205.255 144.392H201.319ZM207.175 145.256C207.175 142.488 205.607 141.096 203.463 141.096C201.143 141.096 199.399 142.728 199.399 145.208C199.399 147.704 201.159 149.224 203.527 149.224C204.983 149.224 206.071 148.712 206.823 147.688L205.543 146.664C205.111 147.272 204.471 147.656 203.511 147.656C202.391 147.656 201.399 146.856 201.319 145.768H207.159C207.175 145.592 207.175 145.432 207.175 145.256ZM215.595 142.296C214.987 141.544 213.819 141.096 212.699 141.096C210.443 141.096 208.587 142.664 208.587 145.16C208.587 147.72 210.475 149.224 212.747 149.224C213.883 149.224 214.939 148.84 215.579 148.152L214.379 146.936C214.011 147.384 213.355 147.624 212.763 147.624C211.307 147.624 210.587 146.36 210.587 145.16C210.587 143.96 211.291 142.696 212.699 142.696C213.323 142.696 213.979 143.016 214.283 143.448L215.595 142.296ZM217.087 142.856V146.44C217.087 147.912 217.551 149.16 219.583 149.16C220.015 149.16 220.527 149.08 220.863 148.952L220.799 147.448C220.575 147.56 220.239 147.608 219.983 147.608C219.135 147.608 218.975 147.112 218.975 146.424V142.856H220.895V141.32H218.975V139.096H217.087V141.32H215.743V142.856H217.087ZM226.525 142.856V146.44C226.525 147.912 226.989 149.16 229.021 149.16C229.453 149.16 229.965 149.08 230.301 148.952L230.237 147.448C230.013 147.56 229.677 147.608 229.421 147.608C228.573 147.608 228.413 147.112 228.413 146.424V142.856H230.333V141.32H228.413V139.096H226.525V141.32H225.181V142.856H226.525ZM231.274 145.128C231.274 147.544 233.13 149.224 235.45 149.224C237.77 149.224 239.626 147.544 239.626 145.128C239.626 142.712 237.77 141.096 235.45 141.096C233.13 141.096 231.274 142.712 231.274 145.128ZM233.226 145.128C233.226 143.928 233.93 142.664 235.45 142.664C236.97 142.664 237.674 143.928 237.674 145.128C237.674 146.328 236.97 147.624 235.45 147.624C233.93 147.624 233.226 146.328 233.226 145.128ZM257.792 147.368H254.992V147.336C256 146.616 257.008 145.224 257.008 143.192C257.008 139.752 254.464 137.384 250.992 137.384C247.52 137.384 244.928 139.752 244.928 143.192C244.928 146.872 247.344 149 250.96 149H257.792V147.368ZM250.992 139.192C253.28 139.192 254.816 140.888 254.816 143.192C254.816 145.608 253.2 147.24 250.96 147.24C248.688 147.24 247.136 145.608 247.136 143.192C247.136 140.888 248.8 139.192 250.992 139.192ZM266.121 141.32H264.201V145.544C264.201 146.568 263.625 147.624 262.409 147.624C261.177 147.624 260.969 146.488 260.969 145.576V141.32H259.049V146.12C259.049 147.688 259.881 149.224 261.881 149.224C263.017 149.224 263.929 148.536 264.265 147.768H264.297V149H266.121V141.32ZM268.457 149H270.377V141.32H268.457V149ZM268.185 138.712C268.185 139.32 268.697 139.864 269.401 139.864C270.105 139.864 270.649 139.368 270.649 138.712C270.649 138.056 270.105 137.56 269.401 137.56C268.697 137.56 268.185 138.104 268.185 138.712ZM279.267 142.296C278.659 141.544 277.491 141.096 276.371 141.096C274.115 141.096 272.259 142.664 272.259 145.16C272.259 147.72 274.147 149.224 276.419 149.224C277.555 149.224 278.611 148.84 279.251 148.152L278.051 146.936C277.683 147.384 277.027 147.624 276.435 147.624C274.979 147.624 274.259 146.36 274.259 145.16C274.259 143.96 274.963 142.696 276.371 142.696C276.995 142.696 277.651 143.016 277.955 143.448L279.267 142.296ZM280.551 149H282.471V145.064H282.519L285.559 149H288.103L284.567 144.792L287.895 141.32H285.431L282.519 144.552H282.471V136.904H280.551V149ZM289.303 149H293.383C295.527 149 297.671 148.168 297.671 145.704C297.671 144.184 296.647 143.224 295.223 143.032V143C296.391 142.648 297.191 141.8 297.191 140.52C297.191 138.456 295.431 137.672 293.719 137.672H289.303V149ZM291.319 139.336H292.935C294.455 139.336 295.175 139.736 295.175 140.744C295.175 141.72 294.455 142.28 293.111 142.28H291.319V139.336ZM291.319 144.008H293.207C294.839 144.008 295.655 144.424 295.655 145.608C295.655 147.096 294.167 147.304 293.127 147.304H291.319V144.008ZM299.118 145.128C299.118 147.544 300.974 149.224 303.294 149.224C305.614 149.224 307.47 147.544 307.47 145.128C307.47 142.712 305.614 141.096 303.294 141.096C300.974 141.096 299.118 142.712 299.118 145.128ZM301.07 145.128C301.07 143.928 301.774 142.664 303.294 142.664C304.814 142.664 305.518 143.928 305.518 145.128C305.518 146.328 304.814 147.624 303.294 147.624C301.774 147.624 301.07 146.328 301.07 145.128ZM308.884 145.128C308.884 147.544 310.74 149.224 313.06 149.224C315.38 149.224 317.236 147.544 317.236 145.128C317.236 142.712 315.38 141.096 313.06 141.096C310.74 141.096 308.884 142.712 308.884 145.128ZM310.836 145.128C310.836 143.928 311.54 142.664 313.06 142.664C314.58 142.664 315.284 143.928 315.284 145.128C315.284 146.328 314.58 147.624 313.06 147.624C311.54 147.624 310.836 146.328 310.836 145.128ZM319.129 149H321.049V145.064H321.097L324.137 149H326.681L323.145 144.792L326.473 141.32H324.009L321.097 144.552H321.049V136.904H319.129V149ZM333.147 142.264C332.523 141.48 331.371 141.096 330.267 141.096C328.747 141.096 327.211 141.832 327.211 143.544C327.211 144.984 328.347 145.448 329.483 145.72C330.651 145.992 331.243 146.184 331.243 146.824C331.243 147.512 330.571 147.736 330.011 147.736C329.179 147.736 328.459 147.32 328.043 146.776L326.779 147.96C327.515 148.776 328.747 149.224 329.931 149.224C331.611 149.224 333.131 148.536 333.131 146.664C333.131 145.16 331.787 144.648 330.651 144.376C329.579 144.12 328.987 143.96 328.987 143.368C328.987 142.76 329.611 142.536 330.219 142.536C330.923 142.536 331.563 142.92 331.899 143.368L333.147 142.264Z" fill="white"/>
<path d="M552.312 139.112C551.416 137.928 549.672 137.384 548.2 137.384C544.712 137.384 542.056 139.672 542.056 143.304C542.056 146.84 544.568 149.288 548.104 149.288C550.024 149.288 551.496 148.552 552.488 147.304L550.872 146.168C550.296 146.952 549.336 147.48 548.12 147.48C545.784 147.48 544.28 145.768 544.28 143.304C544.28 140.968 545.864 139.16 548.2 139.16C549.112 139.16 550.184 139.512 550.776 140.328L552.312 139.112ZM553.009 145.128C553.009 147.544 554.865 149.224 557.185 149.224C559.505 149.224 561.361 147.544 561.361 145.128C561.361 142.712 559.505 141.096 557.185 141.096C554.865 141.096 553.009 142.712 553.009 145.128ZM554.961 145.128C554.961 143.928 555.665 142.664 557.185 142.664C558.705 142.664 559.409 143.928 559.409 145.128C559.409 146.328 558.705 147.624 557.185 147.624C555.665 147.624 554.961 146.328 554.961 145.128ZM563.222 149H565.142V144.776C565.142 143.752 565.718 142.696 566.934 142.696C568.166 142.696 568.374 143.832 568.374 144.744V149H570.294V144.2C570.294 142.632 569.462 141.096 567.462 141.096C566.326 141.096 565.414 141.784 565.078 142.552H565.046V141.32H563.222V149ZM572.535 149H574.455V144.776C574.455 143.752 575.031 142.696 576.247 142.696C577.479 142.696 577.687 143.832 577.687 144.744V149H579.607V144.2C579.607 142.632 578.775 141.096 576.775 141.096C575.639 141.096 574.727 141.784 574.391 142.552H574.359V141.32H572.535V149ZM583.319 144.392C583.399 143.32 584.311 142.536 585.447 142.536C586.695 142.536 587.255 143.4 587.255 144.392H583.319ZM589.175 145.256C589.175 142.488 587.607 141.096 585.463 141.096C583.143 141.096 581.399 142.728 581.399 145.208C581.399 147.704 583.159 149.224 585.527 149.224C586.983 149.224 588.071 148.712 588.823 147.688L587.543 146.664C587.111 147.272 586.471 147.656 585.511 147.656C584.391 147.656 583.399 146.856 583.319 145.768H589.159C589.175 145.592 589.175 145.432 589.175 145.256ZM597.595 142.296C596.987 141.544 595.819 141.096 594.699 141.096C592.443 141.096 590.587 142.664 590.587 145.16C590.587 147.72 592.475 149.224 594.747 149.224C595.883 149.224 596.939 148.84 597.579 148.152L596.379 146.936C596.011 147.384 595.355 147.624 594.763 147.624C593.307 147.624 592.587 146.36 592.587 145.16C592.587 143.96 593.291 142.696 594.699 142.696C595.323 142.696 595.979 143.016 596.283 143.448L597.595 142.296ZM599.087 142.856V146.44C599.087 147.912 599.551 149.16 601.583 149.16C602.015 149.16 602.527 149.08 602.863 148.952L602.799 147.448C602.575 147.56 602.239 147.608 601.983 147.608C601.135 147.608 600.975 147.112 600.975 146.424V142.856H602.895V141.32H600.975V139.096H599.087V141.32H597.743V142.856H599.087ZM608.525 142.856V146.44C608.525 147.912 608.989 149.16 611.021 149.16C611.453 149.16 611.965 149.08 612.301 148.952L612.237 147.448C612.013 147.56 611.677 147.608 611.421 147.608C610.573 147.608 610.413 147.112 610.413 146.424V142.856H612.333V141.32H610.413V139.096H608.525V141.32H607.181V142.856H608.525ZM613.274 145.128C613.274 147.544 615.13 149.224 617.45 149.224C619.77 149.224 621.626 147.544 621.626 145.128C621.626 142.712 619.77 141.096 617.45 141.096C615.13 141.096 613.274 142.712 613.274 145.128ZM615.226 145.128C615.226 143.928 615.93 142.664 617.45 142.664C618.97 142.664 619.674 143.928 619.674 145.128C619.674 146.328 618.97 147.624 617.45 147.624C615.93 147.624 615.226 146.328 615.226 145.128ZM639.792 147.368H636.992V147.336C638 146.616 639.008 145.224 639.008 143.192C639.008 139.752 636.464 137.384 632.992 137.384C629.52 137.384 626.928 139.752 626.928 143.192C626.928 146.872 629.344 149 632.96 149H639.792V147.368ZM632.992 139.192C635.28 139.192 636.816 140.888 636.816 143.192C636.816 145.608 635.2 147.24 632.96 147.24C630.688 147.24 629.136 145.608 629.136 143.192C629.136 140.888 630.8 139.192 632.992 139.192ZM648.121 141.32H646.201V145.544C646.201 146.568 645.625 147.624 644.409 147.624C643.177 147.624 642.969 146.488 642.969 145.576V141.32H641.049V146.12C641.049 147.688 641.881 149.224 643.881 149.224C645.017 149.224 645.929 148.536 646.265 147.768H646.297V149H648.121V141.32ZM650.457 149H652.377V141.32H650.457V149ZM650.185 138.712C650.185 139.32 650.697 139.864 651.401 139.864C652.105 139.864 652.649 139.368 652.649 138.712C652.649 138.056 652.105 137.56 651.401 137.56C650.697 137.56 650.185 138.104 650.185 138.712ZM661.267 142.296C660.659 141.544 659.491 141.096 658.371 141.096C656.115 141.096 654.259 142.664 654.259 145.16C654.259 147.72 656.147 149.224 658.419 149.224C659.555 149.224 660.611 148.84 661.251 148.152L660.051 146.936C659.683 147.384 659.027 147.624 658.435 147.624C656.979 147.624 656.259 146.36 656.259 145.16C656.259 143.96 656.963 142.696 658.371 142.696C658.995 142.696 659.651 143.016 659.955 143.448L661.267 142.296ZM662.551 149H664.471V145.064H664.519L667.559 149H670.103L666.567 144.792L669.895 141.32H667.431L664.519 144.552H664.471V136.904H662.551V149ZM671.303 149H675.383C677.527 149 679.671 148.168 679.671 145.704C679.671 144.184 678.647 143.224 677.223 143.032V143C678.391 142.648 679.191 141.8 679.191 140.52C679.191 138.456 677.431 137.672 675.719 137.672H671.303V149ZM673.319 139.336H674.935C676.455 139.336 677.175 139.736 677.175 140.744C677.175 141.72 676.455 142.28 675.111 142.28H673.319V139.336ZM673.319 144.008H675.207C676.839 144.008 677.655 144.424 677.655 145.608C677.655 147.096 676.167 147.304 675.127 147.304H673.319V144.008ZM681.118 145.128C681.118 147.544 682.974 149.224 685.294 149.224C687.614 149.224 689.47 147.544 689.47 145.128C689.47 142.712 687.614 141.096 685.294 141.096C682.974 141.096 681.118 142.712 681.118 145.128ZM683.07 145.128C683.07 143.928 683.774 142.664 685.294 142.664C686.814 142.664 687.518 143.928 687.518 145.128C687.518 146.328 686.814 147.624 685.294 147.624C683.774 147.624 683.07 146.328 683.07 145.128ZM690.884 145.128C690.884 147.544 692.74 149.224 695.06 149.224C697.38 149.224 699.236 147.544 699.236 145.128C699.236 142.712 697.38 141.096 695.06 141.096C692.74 141.096 690.884 142.712 690.884 145.128ZM692.836 145.128C692.836 143.928 693.54 142.664 695.06 142.664C696.58 142.664 697.284 143.928 697.284 145.128C697.284 146.328 696.58 147.624 695.06 147.624C693.54 147.624 692.836 146.328 692.836 145.128ZM701.129 149H703.049V145.064H703.097L706.137 149H708.681L705.145 144.792L708.473 141.32H706.009L703.097 144.552H703.049V136.904H701.129V149ZM715.147 142.264C714.523 141.48 713.371 141.096 712.267 141.096C710.747 141.096 709.211 141.832 709.211 143.544C709.211 144.984 710.347 145.448 711.483 145.72C712.651 145.992 713.243 146.184 713.243 146.824C713.243 147.512 712.571 147.736 712.011 147.736C711.179 147.736 710.459 147.32 710.043 146.776L708.779 147.96C709.515 148.776 710.747 149.224 711.931 149.224C713.611 149.224 715.131 148.536 715.131 146.664C715.131 145.16 713.787 144.648 712.651 144.376C711.579 144.12 710.987 143.96 710.987 143.368C710.987 142.76 711.611 142.536 712.219 142.536C712.923 142.536 713.563 142.92 713.899 143.368L715.147 142.264Z" fill="#393A3D"/>
<path d="M736 126H521C519.343 126 518 127.343 518 129V157C518 158.657 519.343 160 521 160H736C737.657 160 739 158.657 739 157V129C739 127.343 737.657 126 736 126Z" stroke="#6B6C72" stroke-width="2"/>
<path d="M558.764 220.64C557.644 219.16 555.464 218.48 553.624 218.48C549.264 218.48 545.944 221.34 545.944 225.88C545.944 230.3 549.084 233.36 553.504 233.36C555.904 233.36 557.744 232.44 558.984 230.88L556.964 229.46C556.244 230.44 555.044 231.1 553.524 231.1C550.604 231.1 548.724 228.96 548.724 225.88C548.724 222.96 550.704 220.7 553.624 220.7C554.764 220.7 556.104 221.14 556.844 222.16L558.764 220.64ZM559.636 228.16C559.636 231.18 561.956 233.28 564.856 233.28C567.756 233.28 570.076 231.18 570.076 228.16C570.076 225.14 567.756 223.12 564.856 223.12C561.956 223.12 559.636 225.14 559.636 228.16ZM562.076 228.16C562.076 226.66 562.956 225.08 564.856 225.08C566.756 225.08 567.636 226.66 567.636 228.16C567.636 229.66 566.756 231.28 564.856 231.28C562.956 231.28 562.076 229.66 562.076 228.16ZM572.403 233H574.803V227.72C574.803 226.44 575.523 225.12 577.043 225.12C578.583 225.12 578.843 226.54 578.843 227.68V233H581.243V227C581.243 225.04 580.203 223.12 577.703 223.12C576.283 223.12 575.143 223.98 574.723 224.94H574.683V223.4H572.403V233ZM584.044 233H586.444V227.72C586.444 226.44 587.164 225.12 588.684 225.12C590.224 225.12 590.484 226.54 590.484 227.68V233H592.884V227C592.884 225.04 591.844 223.12 589.344 223.12C587.924 223.12 586.784 223.98 586.364 224.94H586.324V223.4H584.044V233ZM597.524 227.24C597.624 225.9 598.764 224.92 600.184 224.92C601.744 224.92 602.444 226 602.444 227.24H597.524ZM604.844 228.32C604.844 224.86 602.884 223.12 600.204 223.12C597.304 223.12 595.124 225.16 595.124 228.26C595.124 231.38 597.324 233.28 600.284 233.28C602.104 233.28 603.464 232.64 604.404 231.36L602.804 230.08C602.264 230.84 601.464 231.32 600.264 231.32C598.864 231.32 597.624 230.32 597.524 228.96H604.824C604.844 228.74 604.844 228.54 604.844 228.32ZM615.369 224.62C614.609 223.68 613.149 223.12 611.749 223.12C608.929 223.12 606.609 225.08 606.609 228.2C606.609 231.4 608.969 233.28 611.809 233.28C613.229 233.28 614.549 232.8 615.349 231.94L613.849 230.42C613.389 230.98 612.569 231.28 611.829 231.28C610.009 231.28 609.109 229.7 609.109 228.2C609.109 226.7 609.989 225.12 611.749 225.12C612.529 225.12 613.349 225.52 613.729 226.06L615.369 224.62ZM617.234 225.32V229.8C617.234 231.64 617.814 233.2 620.354 233.2C620.894 233.2 621.534 233.1 621.954 232.94L621.874 231.06C621.594 231.2 621.174 231.26 620.854 231.26C619.794 231.26 619.594 230.64 619.594 229.78V225.32H621.994V223.4H619.594V220.62H617.234V223.4H615.554V225.32H617.234ZM629.031 225.32V229.8C629.031 231.64 629.611 233.2 632.151 233.2C632.691 233.2 633.331 233.1 633.751 232.94L633.671 231.06C633.391 231.2 632.971 231.26 632.651 231.26C631.591 231.26 631.391 230.64 631.391 229.78V225.32H633.791V223.4H631.391V220.62H629.031V223.4H627.351V225.32H629.031ZM634.968 228.16C634.968 231.18 637.288 233.28 640.188 233.28C643.088 233.28 645.408 231.18 645.408 228.16C645.408 225.14 643.088 223.12 640.188 223.12C637.288 223.12 634.968 225.14 634.968 228.16ZM637.408 228.16C637.408 226.66 638.288 225.08 640.188 225.08C642.088 225.08 642.968 226.66 642.968 228.16C642.968 229.66 642.088 231.28 640.188 231.28C638.288 231.28 637.408 229.66 637.408 228.16ZM668.115 230.96H664.615V230.92C665.875 230.02 667.135 228.28 667.135 225.74C667.135 221.44 663.955 218.48 659.615 218.48C655.275 218.48 652.035 221.44 652.035 225.74C652.035 230.34 655.055 233 659.575 233H668.115V230.96ZM659.615 220.74C662.475 220.74 664.395 222.86 664.395 225.74C664.395 228.76 662.375 230.8 659.575 230.8C656.735 230.8 654.795 228.76 654.795 225.74C654.795 222.86 656.875 220.74 659.615 220.74ZM678.526 223.4H676.126V228.68C676.126 229.96 675.406 231.28 673.886 231.28C672.346 231.28 672.086 229.86 672.086 228.72V223.4H669.686V229.4C669.686 231.36 670.726 233.28 673.226 233.28C674.646 233.28 675.786 232.42 676.206 231.46H676.246V233H678.526V223.4ZM681.447 233H683.847V223.4H681.447V233ZM681.107 220.14C681.107 220.9 681.747 221.58 682.627 221.58C683.507 221.58 684.187 220.96 684.187 220.14C684.187 219.32 683.507 218.7 682.627 218.7C681.747 218.7 681.107 219.38 681.107 220.14ZM694.958 224.62C694.198 223.68 692.738 223.12 691.338 223.12C688.518 223.12 686.198 225.08 686.198 228.2C686.198 231.4 688.558 233.28 691.398 233.28C692.818 233.28 694.138 232.8 694.938 231.94L693.438 230.42C692.978 230.98 692.158 231.28 691.418 231.28C689.598 231.28 688.698 229.7 688.698 228.2C688.698 226.7 689.578 225.12 691.338 225.12C692.118 225.12 692.938 225.52 693.318 226.06L694.958 224.62ZM696.564 233H698.964V228.08H699.024L702.824 233H706.004L701.584 227.74L705.744 223.4H702.664L699.024 227.44H698.964V217.88H696.564V233ZM707.503 233H712.603C715.283 233 717.963 231.96 717.963 228.88C717.963 226.98 716.683 225.78 714.903 225.54V225.5C716.363 225.06 717.363 224 717.363 222.4C717.363 219.82 715.163 218.84 713.023 218.84H707.503V233ZM710.023 220.92H712.043C713.943 220.92 714.843 221.42 714.843 222.68C714.843 223.9 713.943 224.6 712.263 224.6H710.023V220.92ZM710.023 226.76H712.383C714.423 226.76 715.443 227.28 715.443 228.76C715.443 230.62 713.583 230.88 712.283 230.88H710.023V226.76ZM719.773 228.16C719.773 231.18 722.093 233.28 724.993 233.28C727.893 233.28 730.213 231.18 730.213 228.16C730.213 225.14 727.893 223.12 724.993 223.12C722.093 223.12 719.773 225.14 719.773 228.16ZM722.213 228.16C722.213 226.66 723.093 225.08 724.993 225.08C726.893 225.08 727.773 226.66 727.773 228.16C727.773 229.66 726.893 231.28 724.993 231.28C723.093 231.28 722.213 229.66 722.213 228.16ZM731.98 228.16C731.98 231.18 734.3 233.28 737.2 233.28C740.1 233.28 742.42 231.18 742.42 228.16C742.42 225.14 740.1 223.12 737.2 223.12C734.3 223.12 731.98 225.14 731.98 228.16ZM734.42 228.16C734.42 226.66 735.3 225.08 737.2 225.08C739.1 225.08 739.98 226.66 739.98 228.16C739.98 229.66 739.1 231.28 737.2 231.28C735.3 231.28 734.42 229.66 734.42 228.16ZM744.787 233H747.187V228.08H747.247L751.047 233H754.227L749.807 227.74L753.967 223.4H750.887L747.247 227.44H747.187V217.88H744.787V233ZM762.309 224.58C761.529 223.6 760.089 223.12 758.709 223.12C756.809 223.12 754.889 224.04 754.889 226.18C754.889 227.98 756.309 228.56 757.729 228.9C759.189 229.24 759.929 229.48 759.929 230.28C759.929 231.14 759.089 231.42 758.389 231.42C757.349 231.42 756.449 230.9 755.929 230.22L754.349 231.7C755.269 232.72 756.809 233.28 758.289 233.28C760.389 233.28 762.289 232.42 762.289 230.08C762.289 228.2 760.609 227.56 759.189 227.22C757.849 226.9 757.109 226.7 757.109 225.96C757.109 225.2 757.889 224.92 758.649 224.92C759.529 224.92 760.329 225.4 760.749 225.96L762.309 224.58Z" fill="#393A3D"/>
<path d="M787 203H521C519.343 203 518 204.343 518 206V246C518 247.657 519.343 249 521 249H787C788.657 249 790 247.657 790 246V206C790 204.343 788.657 203 787 203Z" stroke="#6B6C72" stroke-width="2"/>
<path d="M541.359 68.584C540.687 67.696 539.379 67.288 538.275 67.288C535.659 67.288 533.667 69.004 533.667 71.728C533.667 74.38 535.551 76.216 538.203 76.216C539.643 76.216 540.747 75.664 541.491 74.728L540.279 73.876C539.847 74.464 539.127 74.86 538.215 74.86C536.463 74.86 535.335 73.576 535.335 71.728C535.335 69.976 536.523 68.62 538.275 68.62C538.959 68.62 539.763 68.884 540.207 69.496L541.359 68.584ZM541.882 73.096C541.882 74.908 543.274 76.168 545.014 76.168C546.754 76.168 548.146 74.908 548.146 73.096C548.146 71.284 546.754 70.072 545.014 70.072C543.274 70.072 541.882 71.284 541.882 73.096ZM543.346 73.096C543.346 72.196 543.874 71.248 545.014 71.248C546.154 71.248 546.682 72.196 546.682 73.096C546.682 73.996 546.154 74.968 545.014 74.968C543.874 74.968 543.346 73.996 543.346 73.096ZM549.542 76H550.982V72.832C550.982 72.064 551.414 71.272 552.326 71.272C553.25 71.272 553.406 72.124 553.406 72.808V76H554.846V72.4C554.846 71.224 554.222 70.072 552.722 70.072C551.87 70.072 551.186 70.588 550.934 71.164H550.91V70.24H549.542V76ZM556.526 76H557.966V72.832C557.966 72.064 558.398 71.272 559.31 71.272C560.234 71.272 560.39 72.124 560.39 72.808V76H561.83V72.4C561.83 71.224 561.206 70.072 559.706 70.072C558.854 70.072 558.17 70.588 557.918 71.164H557.894V70.24H556.526V76ZM564.614 72.544C564.674 71.74 565.358 71.152 566.21 71.152C567.146 71.152 567.566 71.8 567.566 72.544H564.614ZM569.006 73.192C569.006 71.116 567.83 70.072 566.222 70.072C564.482 70.072 563.174 71.296 563.174 73.156C563.174 75.028 564.494 76.168 566.27 76.168C567.362 76.168 568.178 75.784 568.742 75.016L567.782 74.248C567.458 74.704 566.978 74.992 566.258 74.992C565.418 74.992 564.674 74.392 564.614 73.576H568.994C569.006 73.444 569.006 73.324 569.006 73.192ZM575.321 70.972C574.865 70.408 573.989 70.072 573.149 70.072C571.457 70.072 570.065 71.248 570.065 73.12C570.065 75.04 571.481 76.168 573.185 76.168C574.037 76.168 574.829 75.88 575.309 75.364L574.409 74.452C574.133 74.788 573.641 74.968 573.197 74.968C572.105 74.968 571.565 74.02 571.565 73.12C571.565 72.22 572.093 71.272 573.149 71.272C573.617 71.272 574.109 71.512 574.337 71.836L575.321 70.972ZM576.44 71.392V74.08C576.44 75.184 576.788 76.12 578.312 76.12C578.636 76.12 579.02 76.06 579.272 75.964L579.224 74.836C579.056 74.92 578.804 74.956 578.612 74.956C577.976 74.956 577.856 74.584 577.856 74.068V71.392H579.296V70.24H577.856V68.572H576.44V70.24H575.432V71.392H576.44ZM583.519 71.392V74.08C583.519 75.184 583.867 76.12 585.391 76.12C585.715 76.12 586.099 76.06 586.351 75.964L586.303 74.836C586.135 74.92 585.883 74.956 585.691 74.956C585.055 74.956 584.935 74.584 584.935 74.068V71.392H586.375V70.24H584.935V68.572H583.519V70.24H582.511V71.392H583.519ZM587.081 73.096C587.081 74.908 588.473 76.168 590.213 76.168C591.953 76.168 593.345 74.908 593.345 73.096C593.345 71.284 591.953 70.072 590.213 70.072C588.473 70.072 587.081 71.284 587.081 73.096ZM588.545 73.096C588.545 72.196 589.073 71.248 590.213 71.248C591.353 71.248 591.881 72.196 591.881 73.096C591.881 73.996 591.353 74.968 590.213 74.968C589.073 74.968 588.545 73.996 588.545 73.096ZM606.969 74.776H604.869V74.752C605.625 74.212 606.381 73.168 606.381 71.644C606.381 69.064 604.473 67.288 601.869 67.288C599.265 67.288 597.321 69.064 597.321 71.644C597.321 74.404 599.133 76 601.845 76H606.969V74.776ZM601.869 68.644C603.585 68.644 604.737 69.916 604.737 71.644C604.737 73.456 603.525 74.68 601.845 74.68C600.141 74.68 598.977 73.456 598.977 71.644C598.977 69.916 600.225 68.644 601.869 68.644ZM613.216 70.24H611.776V73.408C611.776 74.176 611.344 74.968 610.432 74.968C609.508 74.968 609.352 74.116 609.352 73.432V70.24H607.912V73.84C607.912 75.016 608.536 76.168 610.036 76.168C610.888 76.168 611.572 75.652 611.824 75.076H611.848V76H613.216V70.24ZM614.968 76H616.408V70.24H614.968V76ZM614.764 68.284C614.764 68.74 615.148 69.148 615.676 69.148C616.204 69.148 616.612 68.776 616.612 68.284C616.612 67.792 616.204 67.42 615.676 67.42C615.148 67.42 614.764 67.828 614.764 68.284ZM623.075 70.972C622.619 70.408 621.743 70.072 620.903 70.072C619.211 70.072 617.819 71.248 617.819 73.12C617.819 75.04 619.235 76.168 620.939 76.168C621.791 76.168 622.583 75.88 623.063 75.364L622.163 74.452C621.887 74.788 621.395 74.968 620.951 74.968C619.859 74.968 619.319 74.02 619.319 73.12C619.319 72.22 619.847 71.272 620.903 71.272C621.371 71.272 621.863 71.512 622.091 71.836L623.075 70.972ZM624.038 76H625.478V73.048H625.514L627.794 76H629.702L627.05 72.844L629.546 70.24H627.698L625.514 72.664H625.478V66.928H624.038V76ZM630.602 76H633.662C635.27 76 636.878 75.376 636.878 73.528C636.878 72.388 636.11 71.668 635.042 71.524V71.5C635.918 71.236 636.518 70.6 636.518 69.64C636.518 68.092 635.198 67.504 633.914 67.504H630.602V76ZM632.114 68.752H633.326C634.466 68.752 635.006 69.052 635.006 69.808C635.006 70.54 634.466 70.96 633.458 70.96H632.114V68.752ZM632.114 72.256H633.53C634.754 72.256 635.366 72.568 635.366 73.456C635.366 74.572 634.25 74.728 633.47 74.728H632.114V72.256ZM637.964 73.096C637.964 74.908 639.356 76.168 641.096 76.168C642.836 76.168 644.228 74.908 644.228 73.096C644.228 71.284 642.836 70.072 641.096 70.072C639.356 70.072 637.964 71.284 637.964 73.096ZM639.428 73.096C639.428 72.196 639.956 71.248 641.096 71.248C642.236 71.248 642.764 72.196 642.764 73.096C642.764 73.996 642.236 74.968 641.096 74.968C639.956 74.968 639.428 73.996 639.428 73.096ZM645.288 73.096C645.288 74.908 646.68 76.168 648.42 76.168C650.16 76.168 651.552 74.908 651.552 73.096C651.552 71.284 650.16 70.072 648.42 70.072C646.68 70.072 645.288 71.284 645.288 73.096ZM646.752 73.096C646.752 72.196 647.28 71.248 648.42 71.248C649.56 71.248 650.088 72.196 650.088 73.096C650.088 73.996 649.56 74.968 648.42 74.968C647.28 74.968 646.752 73.996 646.752 73.096ZM652.972 76H654.412V73.048H654.448L656.728 76H658.636L655.984 72.844L658.48 70.24H656.632L654.448 72.664H654.412V66.928H652.972V76ZM663.485 70.948C663.017 70.36 662.153 70.072 661.325 70.072C660.185 70.072 659.033 70.624 659.033 71.908C659.033 72.988 659.885 73.336 660.737 73.54C661.613 73.744 662.057 73.888 662.057 74.368C662.057 74.884 661.553 75.052 661.133 75.052C660.509 75.052 659.969 74.74 659.657 74.332L658.709 75.22C659.261 75.832 660.185 76.168 661.073 76.168C662.333 76.168 663.473 75.652 663.473 74.248C663.473 73.12 662.465 72.736 661.613 72.532C660.809 72.34 660.365 72.22 660.365 71.776C660.365 71.32 660.833 71.152 661.289 71.152C661.817 71.152 662.297 71.44 662.549 71.776L663.485 70.948Z" fill="#393A3D"/>
<path d="M676 61H521C519.343 61 518 62.3431 518 64V80C518 81.6569 519.343 83 521 83H676C677.657 83 679 81.6569 679 80V64C679 62.3431 677.657 61 676 61Z" stroke="#6B6C72" stroke-width="2"/>
<path d="M837 104H13V105H837V104Z" fill="#E3E5E8"/>
<path d="M837 42H13V43H837V42Z" fill="#E3E5E8"/>
<path d="M837 181H13V182H837V181Z" fill="#E3E5E8"/>
<path d="M837 270H13V271H837V270Z" fill="#E3E5E8"/>
<path d="M521.344 17.064H524.976V15.672H516.128V17.064H519.76V27H521.344V17.064ZM524.968 21.048V27H526.472V23.016C526.472 21.752 527.16 20.584 528.6 20.584C528.84 20.584 529.096 20.616 529.288 20.664L529.352 19.272C529.176 19.224 528.968 19.208 528.76 19.208C527.736 19.208 526.856 19.816 526.44 20.696H526.392C526.392 20.376 526.36 19.8 526.328 19.416H524.904C524.952 19.912 524.968 20.648 524.968 21.048ZM535.282 22.296C532.722 22.296 530.002 22.568 530.002 24.856C530.002 26.6 531.554 27.192 532.754 27.192C533.89 27.192 534.754 26.728 535.298 25.912H535.346C535.346 26.264 535.394 26.664 535.474 27H536.834C536.754 26.632 536.722 26.008 536.722 25.496V22.184C536.722 20.504 535.73 19.208 533.554 19.208C532.322 19.208 531.186 19.64 530.45 20.344L531.25 21.304C531.762 20.792 532.562 20.424 533.41 20.424C534.53 20.424 535.282 20.968 535.282 22.088V22.296ZM535.282 23.384V23.784C535.282 25.064 534.498 26.008 533.09 26.008C532.338 26.008 531.538 25.72 531.538 24.824C531.538 23.544 533.426 23.384 534.914 23.384H535.282ZM539.17 19.416C539.218 19.912 539.234 20.648 539.234 21.048V27H540.738V22.968C540.738 21.464 541.586 20.472 542.77 20.472C544.162 20.472 544.498 21.56 544.498 22.792V27H546.002V22.296C546.002 20.6 545.122 19.208 543.17 19.208C542.082 19.208 541.074 19.848 540.706 20.664H540.658C540.658 20.344 540.626 19.8 540.594 19.416H539.17ZM553.682 20.456C553.138 19.64 552.002 19.208 550.93 19.208C549.49 19.208 548.066 19.896 548.066 21.528C548.066 22.952 549.266 23.384 550.274 23.624C551.57 23.928 552.258 24.184 552.258 24.888C552.258 25.72 551.506 25.992 550.754 25.992C549.906 25.992 549.138 25.528 548.738 24.936L547.666 25.848C548.386 26.76 549.57 27.208 550.722 27.208C552.258 27.208 553.746 26.552 553.746 24.76C553.746 23.432 552.642 22.84 551.202 22.52C550.05 22.264 549.474 22.024 549.474 21.384C549.474 20.664 550.194 20.392 550.882 20.392C551.65 20.392 552.306 20.792 552.642 21.336L553.682 20.456ZM557.159 25.864H557.207C557.767 26.712 558.807 27.208 559.879 27.208C562.215 27.208 563.703 25.416 563.703 23.192C563.703 20.952 562.167 19.208 559.911 19.208C558.663 19.208 557.671 19.8 557.175 20.6H557.127V19.416H555.655V30.84H557.159V25.864ZM562.151 23.192C562.151 24.616 561.271 25.944 559.623 25.944C558.087 25.944 557.063 24.664 557.063 23.208C557.063 21.752 558.087 20.456 559.623 20.456C561.271 20.456 562.151 21.768 562.151 23.192ZM570.516 22.296C567.956 22.296 565.236 22.568 565.236 24.856C565.236 26.6 566.788 27.192 567.988 27.192C569.124 27.192 569.988 26.728 570.532 25.912H570.58C570.58 26.264 570.628 26.664 570.708 27H572.068C571.988 26.632 571.956 26.008 571.956 25.496V22.184C571.956 20.504 570.964 19.208 568.788 19.208C567.556 19.208 566.42 19.64 565.684 20.344L566.484 21.304C566.996 20.792 567.796 20.424 568.644 20.424C569.764 20.424 570.516 20.968 570.516 22.088V22.296ZM570.516 23.384V23.784C570.516 25.064 569.732 26.008 568.324 26.008C567.572 26.008 566.772 25.72 566.772 24.824C566.772 23.544 568.66 23.384 570.148 23.384H570.516ZM574.468 21.048V27H575.972V23.016C575.972 21.752 576.66 20.584 578.1 20.584C578.34 20.584 578.596 20.616 578.788 20.664L578.852 19.272C578.676 19.224 578.468 19.208 578.26 19.208C577.236 19.208 576.356 19.816 575.94 20.696H575.892C575.892 20.376 575.86 19.8 575.828 19.416H574.404C574.452 19.912 574.468 20.648 574.468 21.048ZM581.024 22.536C581.12 21.352 582.112 20.392 583.408 20.392C584.8 20.392 585.504 21.336 585.536 22.536H581.024ZM587.056 23.144C587.056 20.728 585.648 19.208 583.408 19.208C581.184 19.208 579.488 20.856 579.488 23.224C579.488 25.608 581.184 27.208 583.488 27.208C584.832 27.208 585.936 26.712 586.752 25.656L585.696 24.808C585.264 25.448 584.512 25.96 583.488 25.96C582.16 25.96 581.072 24.952 581.024 23.656H587.04C587.056 23.48 587.056 23.304 587.056 23.144ZM589.091 19.416C589.139 19.912 589.155 20.648 589.155 21.048V27H590.659V22.968C590.659 21.464 591.507 20.472 592.691 20.472C594.083 20.472 594.419 21.56 594.419 22.792V27H595.923V22.296C595.923 20.6 595.043 19.208 593.091 19.208C592.003 19.208 590.995 19.848 590.627 20.664H590.579C590.579 20.344 590.547 19.8 590.515 19.416H589.091ZM602.18 19.416H600.164V17.24H598.676V19.416H597.22V20.648H598.676V24.76C598.676 26.328 599.46 27.128 600.884 27.128C601.348 27.128 601.812 27.048 602.164 26.92L602.116 25.688C601.86 25.816 601.508 25.88 601.236 25.88C600.484 25.88 600.164 25.512 600.164 24.6V20.648H602.18V19.416Z" fill="#393A3D"/>
<path d="M24.128 70.68C23.424 69.896 22.192 69.384 20.88 69.384C19.008 69.384 16.992 70.36 16.992 72.616C16.992 74.696 18.496 75.352 19.936 75.8C21.376 76.248 22.624 76.616 22.624 77.992C22.624 79.336 21.408 79.928 20.352 79.928C19.312 79.928 18.352 79.384 17.824 78.6L16.592 79.64C17.456 80.728 18.896 81.288 20.32 81.288C22.336 81.288 24.24 80.2 24.24 77.848C24.24 75.592 22.432 75.016 20.912 74.536C19.632 74.12 18.592 73.784 18.592 72.552C18.592 71.272 19.776 70.712 20.8 70.712C21.744 70.712 22.56 71.144 23.008 71.768L24.128 70.68ZM27.9414 74.568V68.904H26.4374V81H27.9414V76.984C27.9414 75.48 28.8054 74.488 29.9894 74.488C31.3814 74.488 31.7014 75.576 31.7014 76.808V81H33.2054V76.296C33.2054 74.6 32.3254 73.208 30.3734 73.208C29.2854 73.208 28.3254 73.816 27.9734 74.568H27.9414ZM43.4291 77.192C43.4291 74.856 41.6531 73.208 39.3331 73.208C37.0131 73.208 35.2531 74.856 35.2531 77.192C35.2531 79.528 37.0131 81.208 39.3331 81.208C41.6531 81.208 43.4291 79.528 43.4291 77.192ZM41.8611 77.192C41.8611 78.632 40.9651 79.944 39.3331 79.944C37.7171 79.944 36.8051 78.632 36.8051 77.192C36.8051 75.752 37.7171 74.456 39.3331 74.456C40.9651 74.456 41.8611 75.752 41.8611 77.192ZM45.5148 75.048V81H47.0188V77.016C47.0188 75.752 47.7068 74.584 49.1468 74.584C49.3868 74.584 49.6428 74.616 49.8348 74.664L49.8988 73.272C49.7228 73.224 49.5148 73.208 49.3068 73.208C48.2828 73.208 47.4028 73.816 46.9868 74.696H46.9388C46.9388 74.376 46.9068 73.8 46.8748 73.416H45.4508C45.4988 73.912 45.5148 74.648 45.5148 75.048ZM54.8361 73.416H52.8201V71.24H51.3321V73.416H49.8761V74.648H51.3321V78.76C51.3321 80.328 52.1161 81.128 53.5401 81.128C54.0041 81.128 54.4681 81.048 54.8201 80.92L54.7721 79.688C54.5161 79.816 54.1641 79.88 53.8921 79.88C53.1401 79.88 52.8201 79.512 52.8201 78.6V74.648H54.8361V73.416Z" fill="#393A3D"/>
<path d="M19.84 141.672H17.376V153H18.912V143.528H18.944L22.688 153H23.696L27.456 143.528H27.488V153H29.072V141.672H26.608L23.264 150.376H23.232L19.84 141.672ZM32.7891 148.536C32.8851 147.352 33.8771 146.392 35.1731 146.392C36.5651 146.392 37.2691 147.336 37.3011 148.536H32.7891ZM38.8211 149.144C38.8211 146.728 37.4131 145.208 35.1731 145.208C32.9491 145.208 31.2531 146.856 31.2531 149.224C31.2531 151.608 32.9491 153.208 35.2531 153.208C36.5971 153.208 37.7011 152.712 38.5171 151.656L37.4611 150.808C37.0291 151.448 36.2771 151.96 35.2531 151.96C33.9251 151.96 32.8371 150.952 32.7891 149.656H38.8051C38.8211 149.48 38.8211 149.304 38.8211 149.144ZM46.969 151.8H47.001V153H48.457V140.904H46.953V146.552H46.921C46.393 145.816 45.449 145.208 44.217 145.208C41.945 145.208 40.409 146.952 40.409 149.192C40.409 151.416 41.897 153.208 44.233 153.208C45.305 153.208 46.393 152.712 46.969 151.8ZM41.977 149.192C41.977 147.768 42.841 146.456 44.489 146.456C46.025 146.456 47.049 147.752 47.049 149.208C47.049 150.664 46.025 151.944 44.489 151.944C42.841 151.944 41.977 150.616 41.977 149.192ZM52.5973 145.416H51.0933V153H52.5973V145.416ZM52.8533 142.68C52.8533 142.12 52.3893 141.704 51.8453 141.704C51.3013 141.704 50.8533 142.136 50.8533 142.68C50.8533 143.208 51.3013 143.64 51.8453 143.64C52.3893 143.64 52.8533 143.224 52.8533 142.68ZM61.9859 153C61.9379 152.504 61.9219 151.768 61.9219 151.368V145.416H60.4179V149.448C60.4179 150.952 59.5859 151.944 58.3859 151.944C56.9939 151.944 56.6579 150.856 56.6579 149.608V145.416H55.1539V150.12C55.1539 151.816 56.0339 153.208 57.9859 153.208C59.0899 153.208 60.0819 152.552 60.4659 151.752H60.4979C60.4979 152.072 60.5299 152.616 60.5619 153H61.9859ZM66.0024 146.664H65.9544C65.9544 146.344 65.9224 145.8 65.8904 145.416H64.4664C64.5144 145.912 64.5304 146.648 64.5304 147.048V153H66.0344V148.968C66.0344 147.464 66.8664 146.472 67.9704 146.472C69.1704 146.472 69.5704 147.304 69.5704 148.488V153H71.0744V148.904C71.0744 147.72 71.6184 146.472 72.9944 146.472C74.3064 146.472 74.6744 147.56 74.6744 148.792V153H76.1784V148.296C76.1784 146.6 75.2984 145.208 73.3464 145.208C72.2744 145.208 71.2824 145.752 70.7704 146.728C70.3064 145.656 69.4264 145.208 68.4184 145.208C67.2664 145.208 66.3864 145.864 66.0024 146.664Z" fill="#393A3D"/>
<path d="M21.344 225.064H24.976V223.672H16.128V225.064H19.76V235H21.344V225.064ZM29.5941 230.296C27.0341 230.296 24.3141 230.568 24.3141 232.856C24.3141 234.6 25.8661 235.192 27.0661 235.192C28.2021 235.192 29.0661 234.728 29.6101 233.912H29.6581C29.6581 234.264 29.7061 234.664 29.7861 235H31.1461C31.0661 234.632 31.0341 234.008 31.0341 233.496V230.184C31.0341 228.504 30.0421 227.208 27.8661 227.208C26.6341 227.208 25.4981 227.64 24.7621 228.344L25.5621 229.304C26.0741 228.792 26.8741 228.424 27.7221 228.424C28.8421 228.424 29.5941 228.968 29.5941 230.088V230.296ZM29.5941 231.384V231.784C29.5941 233.064 28.8101 234.008 27.4021 234.008C26.6501 234.008 25.8501 233.72 25.8501 232.824C25.8501 231.544 27.7381 231.384 29.2261 231.384H29.5941ZM35.082 222.904H33.578V235H35.082V222.904ZM39.2383 222.904H37.7343V235H39.2383V222.904Z" fill="#393A3D"/>
<path d="M147.024 16.856C146.096 15.96 144.624 15.384 142.832 15.384C139.392 15.384 136.8 17.784 136.8 21.32C136.8 24.808 139.312 27.288 142.848 27.288C144.512 27.288 145.92 26.936 147.104 26.296V20.808H143.024V22.152H145.536V25.304C144.88 25.656 143.952 25.864 142.896 25.864C140.192 25.864 138.528 23.848 138.528 21.32C138.528 18.84 140.192 16.776 142.848 16.776C144.144 16.776 145.248 17.272 145.92 18.008L147.024 16.856ZM149.749 21.048V27H151.253V23.016C151.253 21.752 151.941 20.584 153.381 20.584C153.621 20.584 153.877 20.616 154.069 20.664L154.133 19.272C153.957 19.224 153.749 19.208 153.541 19.208C152.517 19.208 151.637 19.816 151.221 20.696H151.173C151.173 20.376 151.141 19.8 151.109 19.416H149.685C149.733 19.912 149.749 20.648 149.749 21.048ZM156.305 22.536C156.401 21.352 157.393 20.392 158.689 20.392C160.081 20.392 160.785 21.336 160.817 22.536H156.305ZM162.337 23.144C162.337 20.728 160.929 19.208 158.689 19.208C156.465 19.208 154.769 20.856 154.769 23.224C154.769 25.608 156.465 27.208 158.769 27.208C160.113 27.208 161.217 26.712 162.033 25.656L160.977 24.808C160.545 25.448 159.793 25.96 158.769 25.96C157.441 25.96 156.353 24.952 156.305 23.656H162.321C162.337 23.48 162.337 23.304 162.337 23.144ZM165.477 22.536C165.573 21.352 166.565 20.392 167.861 20.392C169.253 20.392 169.957 21.336 169.989 22.536H165.477ZM171.509 23.144C171.509 20.728 170.101 19.208 167.861 19.208C165.637 19.208 163.941 20.856 163.941 23.224C163.941 25.608 165.637 27.208 167.941 27.208C169.285 27.208 170.389 26.712 171.205 25.656L170.149 24.808C169.717 25.448 168.965 25.96 167.941 25.96C166.613 25.96 165.525 24.952 165.477 23.656H171.493C171.509 23.48 171.509 23.304 171.509 23.144ZM173.545 19.416C173.593 19.912 173.609 20.648 173.609 21.048V27H175.113V22.968C175.113 21.464 175.961 20.472 177.145 20.472C178.537 20.472 178.873 21.56 178.873 22.792V27H180.377V22.296C180.377 20.6 179.497 19.208 177.545 19.208C176.457 19.208 175.449 19.848 175.081 20.664H175.033C175.033 20.344 175.001 19.8 174.969 19.416H173.545Z" fill="#393A3D"/>
</svg>
